<svg xmlns="http://www.w3.org/2000/svg" viewBox="0 0 512 512"><path d="M255.7 0c35.5 0 68.7 6.7 99.7 20.2 31 13.4 58.1 31.8 81.2 54.9 23.2 23.2 41.5 50.3 54.9 81.2 13.4 31 20.2 64.2 20.2 99.7s-6.7 68.7-20.2 99.7c-13.4 31-31.8 58.1-54.9 81.2-23.2 23.2-50.3 41.5-81.2 54.9-31 13.4-64.2 20.2-99.7 20.2s-68.7-6.7-99.7-20.2c-31-13.4-58.1-31.8-81.2-54.9-23.2-23.2-41.4-50.3-54.6-81.2C6.9 324.7.3 291.5.3 256s6.6-68.7 19.9-99.7 31.5-58.1 54.6-81.2 50.3-41.5 81.2-54.9S220.3 0 255.7 0zm0 28.1c-31.6 0-61.2 5.9-88.8 17.8S115 74 94.4 94.7s-36.9 44.8-48.8 72.5-17.8 57.2-17.8 88.8c0 31.6 5.9 61.2 17.8 88.8 11.9 27.7 28.2 51.8 48.8 72.5 20.7 20.7 44.8 36.9 72.5 48.8 27.7 11.9 57.3 17.8 88.8 17.8s61.2-5.9 88.8-17.8c27.7-11.9 51.8-28.2 72.5-48.8 20.7-20.7 36.9-44.8 48.8-72.5 11.9-27.7 17.8-57.3 17.8-88.8 0-31.6-5.9-61.2-17.8-88.8-11.9-27.7-28.2-51.8-48.8-72.5-20.7-20.7-44.8-36.9-72.5-48.8-27.6-11.9-57.2-17.8-88.8-17.8zm65.5 270c24.5-8.6 36.8-24.7 36.8-48.5 0-12.5-2-22.3-6.1-29.5-4.1-7.2-10.6-13.2-19.6-17.8-4.3-2.3-9.4-3.7-15.2-4.1-5.8-.4-12.1-.5-18.7-.3s-13.6.6-21 1.2a274.588 274.588 0 01-44.4 0c-7.4-.6-14.4-1-21-1.2-6.6-.2-12.9-.1-18.7.3-5.8.4-10.9 1.8-15.2 4.1-9 4.7-15.4 10.6-19.3 17.8-3.9 7.2-5.8 17-5.8 29.5 0 23.8 12.3 39.9 36.8 48.5 4.3 1.2 9 2.3 14 3.5 4.3.8 9.6 1.6 16.1 2.3 6.4.8 13.9 1.2 22.5 1.2H268c8.2 0 15.6-.4 22.2-1.2 6.6-.8 12.3-1.6 16.9-2.3 5.5-1.2 10.2-2.3 14.1-3.5zm70.1-84.8c0 12.5-1.4 24.3-4.1 35.4-2.7 11.1-7.8 21.1-15.2 30.1-7.4 9-17.6 16.4-30.7 22.2-13.1 5.8-29.7 9.5-50 11.1 3.1 1.6 7.1 3.5 12 5.8s9.1 6.8 12.6 13.4c1.9 4.3 3.2 10.5 3.8 18.7.6 8.2.9 16.6.9 25.1 0 8.6-.1 16.5-.3 23.7-.2 7.2.1 11.6.9 13.2 1.6 3.1 3.8 5.8 6.7 8.2 2.9 2.3 5.4 4.1 7.3 5.3 1.9 1.2 2.5 2.6 1.8 4.4-.8 1.8-3.5 2.8-8.2 3.2-2.3 0-5.3-.4-8.8-1.2-3.5-.8-6.8-2.1-9.9-4.1-3.1-1.9-5.7-4.4-7.9-7.3-2.1-2.9-3.2-6.7-3.2-11.4v-47.9c0-5.5-1.3-9.4-3.8-11.7-2.5-2.3-5.2-3.9-7.9-4.7V408c0 11.3 1.4 18.7 4.1 22.2 1.2 1.6 2.2 3.2 3.2 5 1 1.8 1.6 3.2 1.8 4.4.2 1.2-.5 1.9-2 2-1.6.2-4.5-.3-8.8-1.5-8.2-1.9-14-6.4-17.5-13.4s-5.3-14.4-5.3-22.2v-62h-12.9v62c0 7.8-1.7 15.2-5 22.2s-9.3 11.5-17.8 13.4c-4.3 1.2-7.1 1.7-8.5 1.5-1.4-.2-2-.9-2-2 0-1.2.6-2.6 1.8-4.4 1.2-1.8 2.3-3.4 3.5-5 .8-1.6 1.7-4.3 2.6-8.2 1-3.9 1.5-8.6 1.5-14v-63.1c-2.7.8-5.3 2.3-7.6 4.7-2.3 2.3-3.5 6.2-3.5 11.7v47.9c0 4.7-1.1 8.5-3.2 11.4-2.1 2.9-4.8 5.4-7.9 7.3-3.1 1.9-6.4 3.3-9.9 4.1-3.5.8-6.4 1.2-8.8 1.2-4.7-.4-7.4-1.5-8.2-3.2-.8-1.8-.2-3.2 1.8-4.4 1.9-1.2 4.4-2.9 7.3-5.3 2.9-2.3 5.2-5.1 6.7-8.2.8-1.9 1.1-7.1.9-15.5-.2-8.4-.3-17.6-.3-27.8-3.1 1.2-7.2 1.9-12.3 2.3-5.1.4-10.7 0-16.9-1.2-10.5-1.9-18.5-5.4-24-10.2-5.5-4.9-10.7-12.6-15.8-23.1-2.7-5.1-5.7-9.3-9.1-12.6-3.3-3.3-6.2-5.9-8.8-7.9-2.5-1.9-4.5-3.6-5.8-5-1.4-1.4-1.5-2.6-.3-3.8 2.3-2.7 5.6-3.9 9.6-3.5 4.1.4 6.5 1 7.3 1.8 4.7 1.9 9.4 6 14 12.3 4.7 6.2 9.5 11.5 14.6 15.8 2.3 1.9 5.3 3.9 8.8 5.8 3.5 1.9 7.4 3.3 11.7 4.1 4.3.8 9 .8 14 0 5.1-.8 10.1-2.9 15.2-6.4 1.2-5.1 3-9.1 5.6-12 2.5-2.9 5.3-5.3 8.2-7 2.9-1.8 5.6-3.1 8.2-4.1 2.5-1 4.6-1.9 6.1-2.6-21.4-1.6-39-5.2-52.6-10.8-13.6-5.6-24.5-12.9-32.4-21.6-8-8.8-13.4-18.8-16.4-30.1-2.9-11.3-4.4-23.2-4.4-35.7 0-12.9 1.9-24.4 5.8-34.5 3.9-10.1 9.4-19.1 16.4-26.9-3.1-9.4-4.2-19.2-3.2-29.5s3-19.6 6.1-27.8c14.8.8 27.2 3.9 37.1 9.4s16.9 9.9 20.7 13.4c16.8-4.7 34.1-7 52-7h4.1c16.8 0 32.9 1.9 48.5 5.8 4.3-3.5 11.3-7.8 21-12.9 9.7-5.1 21.8-8 36.2-8.8 3.1 7.8 5.2 16.6 6.1 26.3 1 9.7.3 19.1-2 28.1 7.8 7.8 13.8 17 18.1 27.8 4.5 10.8 6.6 23 6.6 36.6zm-136.8-13.4h1.2-1.2zm75.4 45.6c0 5.5-1.5 10.1-4.4 14-2.9 3.9-6.5 5.8-10.8 5.8-4.3 0-7.8-1.9-10.5-5.8s-4.1-8.6-4.1-14 1.4-10.1 4.1-14c2.7-3.9 6.2-5.8 10.5-5.8s7.9 1.9 10.8 5.8c3 3.8 4.4 8.5 4.4 14zm-114.5 0c0 5.5-1.5 10.1-4.4 14-2.9 3.9-6.5 5.8-10.8 5.8-4.3 0-7.8-1.9-10.5-5.8s-4.1-8.6-4.1-14 1.4-10.1 4.1-14c2.7-3.9 6.2-5.8 10.5-5.8s7.9 1.9 10.8 5.8c2.9 3.8 4.4 8.5 4.4 14z" fill="#fff"/></svg>