<?xml version="1.0" encoding="utf-8"?>
<!-- Generator: Adobe Illustrator 21.1.0, SVG Export Plug-In . SVG Version: 6.00 Build 0)  -->
<svg version="1.1" id="Capa_1" xmlns="http://www.w3.org/2000/svg" xmlns:xlink="http://www.w3.org/1999/xlink" x="0px" y="0px"
	 viewBox="0 0 512 512" style="enable-background:new 0 0 512 512;" xml:space="preserve">
<style type="text/css">
	.st0{fill:#FFFFFF;}
</style>
<g>
	<g>
		<path class="st0" d="M255.7,0c35.5,0,68.7,6.7,99.7,20.2c31,13.4,58.1,31.8,81.2,54.9c23.2,23.2,41.5,50.3,54.9,81.2
			c13.4,31,20.2,64.2,20.2,99.7c0,35.5-6.7,68.7-20.2,99.7c-13.4,31-31.8,58.1-54.9,81.2c-23.2,23.2-50.3,41.5-81.2,54.9
			c-31,13.4-64.2,20.2-99.7,20.2s-68.7-6.7-99.7-20.2c-31-13.4-58.1-31.8-81.2-54.9c-23.2-23.2-41.4-50.3-54.6-81.2
			C6.9,324.7,0.3,291.5,0.3,256s6.6-68.7,19.9-99.7s31.5-58.1,54.6-81.2s50.3-41.5,81.2-54.9S220.3,0,255.7,0z M255.7,28.1
			c-31.6,0-61.2,5.9-88.8,17.8S115,74,94.4,94.7s-36.9,44.8-48.8,72.5S27.8,224.4,27.8,256c0,31.6,5.9,61.2,17.8,88.8
			c11.9,27.7,28.2,51.8,48.8,72.5c20.7,20.7,44.8,36.9,72.5,48.8c27.7,11.9,57.3,17.8,88.8,17.8s61.2-5.9,88.8-17.8
			c27.7-11.9,51.8-28.2,72.5-48.8c20.7-20.7,36.9-44.8,48.8-72.5c11.9-27.7,17.8-57.3,17.8-88.8c0-31.6-5.9-61.2-17.8-88.8
			c-11.9-27.7-28.2-51.8-48.8-72.5c-20.7-20.7-44.8-36.9-72.5-48.8C316.9,34,287.3,28.1,255.7,28.1z M321.2,298.1
			c24.5-8.6,36.8-24.7,36.8-48.5c0-12.5-2-22.3-6.1-29.5c-4.1-7.2-10.6-13.2-19.6-17.8c-4.3-2.3-9.4-3.7-15.2-4.1
			c-5.8-0.4-12.1-0.5-18.7-0.3c-6.6,0.2-13.6,0.6-21,1.2c-7.4,0.6-14.8,0.9-22.2,0.9c-7.4,0-14.8-0.3-22.2-0.9
			c-7.4-0.6-14.4-1-21-1.2c-6.6-0.2-12.9-0.1-18.7,0.3c-5.8,0.4-10.9,1.8-15.2,4.1c-9,4.7-15.4,10.6-19.3,17.8
			c-3.9,7.2-5.8,17-5.8,29.5c0,23.8,12.3,39.9,36.8,48.5c4.3,1.2,9,2.3,14,3.5c4.3,0.8,9.6,1.6,16.1,2.3c6.4,0.8,13.9,1.2,22.5,1.2
			H268c8.2,0,15.6-0.4,22.2-1.2c6.6-0.8,12.3-1.6,16.9-2.3C312.6,300.4,317.3,299.3,321.2,298.1z M391.3,213.3
			c0,12.5-1.4,24.3-4.1,35.4c-2.7,11.1-7.8,21.1-15.2,30.1c-7.4,9-17.6,16.4-30.7,22.2c-13.1,5.8-29.7,9.5-50,11.1
			c3.1,1.6,7.1,3.5,12,5.8c4.9,2.3,9.1,6.8,12.6,13.4c1.9,4.3,3.2,10.5,3.8,18.7c0.6,8.2,0.9,16.6,0.9,25.1c0,8.6-0.1,16.5-0.3,23.7
			c-0.2,7.2,0.1,11.6,0.9,13.2c1.6,3.1,3.8,5.8,6.7,8.2c2.9,2.3,5.4,4.1,7.3,5.3c1.9,1.2,2.5,2.6,1.8,4.4c-0.8,1.8-3.5,2.8-8.2,3.2
			c-2.3,0-5.3-0.4-8.8-1.2c-3.5-0.8-6.8-2.1-9.9-4.1c-3.1-1.9-5.7-4.4-7.9-7.3c-2.1-2.9-3.2-6.7-3.2-11.4v-47.9
			c0-5.5-1.3-9.4-3.8-11.7c-2.5-2.3-5.2-3.9-7.9-4.7V408c0,11.3,1.4,18.7,4.1,22.2c1.2,1.6,2.2,3.2,3.2,5c1,1.8,1.6,3.2,1.8,4.4
			c0.2,1.2-0.5,1.9-2,2c-1.6,0.2-4.5-0.3-8.8-1.5c-8.2-1.9-14-6.4-17.5-13.4c-3.5-7-5.3-14.4-5.3-22.2v-62h-12.9v62
			c0,7.8-1.7,15.2-5,22.2c-3.3,7-9.3,11.5-17.8,13.4c-4.3,1.2-7.1,1.7-8.5,1.5c-1.4-0.2-2-0.9-2-2c0-1.2,0.6-2.6,1.8-4.4
			c1.2-1.8,2.3-3.4,3.5-5c0.8-1.6,1.7-4.3,2.6-8.2c1-3.9,1.5-8.6,1.5-14v-63.1c-2.7,0.8-5.3,2.3-7.6,4.7c-2.3,2.3-3.5,6.2-3.5,11.7
			v47.9c0,4.7-1.1,8.5-3.2,11.4c-2.1,2.9-4.8,5.4-7.9,7.3c-3.1,1.9-6.4,3.3-9.9,4.1c-3.5,0.8-6.4,1.2-8.8,1.2
			c-4.7-0.4-7.4-1.5-8.2-3.2c-0.8-1.8-0.2-3.2,1.8-4.4c1.9-1.2,4.4-2.9,7.3-5.3c2.9-2.3,5.2-5.1,6.7-8.2c0.8-1.9,1.1-7.1,0.9-15.5
			c-0.2-8.4-0.3-17.6-0.3-27.8c-3.1,1.2-7.2,1.9-12.3,2.3c-5.1,0.4-10.7,0-16.9-1.2c-10.5-1.9-18.5-5.4-24-10.2
			c-5.5-4.9-10.7-12.6-15.8-23.1c-2.7-5.1-5.7-9.3-9.1-12.6c-3.3-3.3-6.2-5.9-8.8-7.9c-2.5-1.9-4.5-3.6-5.8-5
			c-1.4-1.4-1.5-2.6-0.3-3.8c2.3-2.7,5.6-3.9,9.6-3.5c4.1,0.4,6.5,1,7.3,1.8c4.7,1.9,9.4,6,14,12.3c4.7,6.2,9.5,11.5,14.6,15.8
			c2.3,1.9,5.3,3.9,8.8,5.8c3.5,1.9,7.4,3.3,11.7,4.1c4.3,0.8,9,0.8,14,0c5.1-0.8,10.1-2.9,15.2-6.4c1.2-5.1,3-9.1,5.6-12
			c2.5-2.9,5.3-5.3,8.2-7c2.9-1.8,5.6-3.1,8.2-4.1c2.5-1,4.6-1.9,6.1-2.6c-21.4-1.6-39-5.2-52.6-10.8c-13.6-5.6-24.5-12.9-32.4-21.6
			c-8-8.8-13.4-18.8-16.4-30.1c-2.9-11.3-4.4-23.2-4.4-35.7c0-12.9,1.9-24.4,5.8-34.5c3.9-10.1,9.4-19.1,16.4-26.9
			c-3.1-9.4-4.2-19.2-3.2-29.5c1-10.3,3-19.6,6.1-27.8c14.8,0.8,27.2,3.9,37.1,9.4s16.9,9.9,20.7,13.4c16.8-4.7,34.1-7,52-7h4.1
			c16.8,0,32.9,1.9,48.5,5.8c4.3-3.5,11.3-7.8,21-12.9c9.7-5.1,21.8-8,36.2-8.8c3.1,7.8,5.2,16.6,6.1,26.3c1,9.7,0.3,19.1-2,28.1
			c7.8,7.8,13.8,17,18.1,27.8C389.2,187.5,391.3,199.7,391.3,213.3z M254.5,199.9h0.6h0.6H254.5z M329.9,245.5
			c0,5.5-1.5,10.1-4.4,14c-2.9,3.9-6.5,5.8-10.8,5.8c-4.3,0-7.8-1.9-10.5-5.8c-2.7-3.9-4.1-8.6-4.1-14s1.4-10.1,4.1-14
			c2.7-3.9,6.2-5.8,10.5-5.8s7.9,1.9,10.8,5.8C328.5,235.3,329.9,240,329.9,245.5z M215.4,245.5c0,5.5-1.5,10.1-4.4,14
			c-2.9,3.9-6.5,5.8-10.8,5.8c-4.3,0-7.8-1.9-10.5-5.8c-2.7-3.9-4.1-8.6-4.1-14s1.4-10.1,4.1-14c2.7-3.9,6.2-5.8,10.5-5.8
			c4.3,0,7.9,1.9,10.8,5.8C213.9,235.3,215.4,240,215.4,245.5z"/>
	</g>
</g>
</svg>
