<svg version="1.1" id="Capa_1" xmlns="http://www.w3.org/2000/svg" x="0" y="0" viewBox="0 0 512 512" xml:space="preserve"><style>.st0{fill:#17bed2}</style><path class="st0" d="M256 0C114.6 0 0 114.6 0 256s114.6 256 256 256 256-114.6 256-256S397.4 0 256 0zm0 472c-119.3 0-216-96.7-216-216S136.7 40 256 40s216 96.7 216 216-96.7 216-216 216z"/><path class="st0" d="M128.1 383.9h48v-192h-48v192zm192-192c-41.1.7-61.3 30.6-64 32v-32h-48v192h48v-112c0-4.1 10.1-37 48-32 20.3 1.3 31.3 28.2 32 32v112l47.8.2V251.2c-1.7-19.2-11.3-58.6-63.8-59.3zm-168-64c-13.2 0-24 10.7-24 24s10.8 24 24 24 24-10.7 24-24-10.8-24-24-24z"/></svg>