<svg version="1.1" id="Capa_1" xmlns="http://www.w3.org/2000/svg" x="0" y="0" viewBox="0 0 512 512" xml:space="preserve"><style>.st0{fill:#fff}</style><path class="st0" d="M256 0C114.6 0 0 114.6 0 256s114.6 256 256 256 256-114.6 256-256S397.4 0 256 0zm0 472c-119.3 0-216-96.7-216-216S136.7 40 256 40s216 96.7 216 216-96.7 216-216 216z"/><path class="st0" d="M366.7 256.3c0-63-51.1-114.1-114.1-114.1-5.9 0-11.6.6-17.3 1.4-11.4-9.7-26.1-15.6-42.2-15.6-35.9 0-65.1 29.1-65.1 65.1 0 14.7 4.9 28.2 13.1 39-1.7 7.8-2.6 15.9-2.6 24.2 0 63 51.1 114.1 114.1 114.1 8.1 0 16-.9 23.6-2.5 11.4 10 26.3 16 42.7 16 35.9 0 65.1-29.1 65.1-65.1 0-17.8-7.1-33.8-18.7-45.6.9-5.4 1.4-11.1 1.4-16.9zM305.9 306c-4.5 6.4-11.1 11.4-19.7 15-8.7 3.6-18.9 5.4-30.8 5.4-14.2 0-26-2.5-35.2-7.4-6.5-3.5-11.9-8.3-16-14.2-4.1-5.9-6.2-11.7-6.2-17.3 0-3.3 1.2-6 3.7-8.4 2.5-2.3 5.6-3.5 9.4-3.5 3.1 0 5.7.9 7.8 2.7 2.1 1.8 4 4.5 5.5 8 1.8 4.2 3.8 7.8 6 10.6 2.1 2.8 5.1 5.2 9 7 3.9 1.8 9 2.8 15.2 2.8 8.7 0 15.7-1.8 21.1-5.6 5.4-3.7 8.1-8.3 8.1-13.9 0-4.4-1.5-8-4.4-10.7-2.9-2.8-6.7-4.8-11.3-6.3-4.6-1.4-10.8-3-18.5-4.6-10.4-2.2-19-4.8-26-7.8s-12.5-7.1-16.6-12.2c-4.1-5.2-6.2-11.6-6.2-19.2 0-7.3 2.2-13.8 6.5-19.5 4.3-5.7 10.6-10 18.8-13.1 8.2-3 17.8-4.6 28.9-4.6 8.8 0 16.5 1 23 3s11.8 4.7 16.1 8c4.2 3.4 7.4 6.9 9.3 10.5 2 3.7 3 7.3 3 10.8 0 3.2-1.2 6.1-3.7 8.7-2.5 2.5-5.5 3.8-9.2 3.8-3.3 0-5.9-.8-7.6-2.3-1.7-1.5-3.6-4-5.7-7.5-2.6-5-5.8-8.9-9.5-11.7-3.7-2.8-9.6-4.2-17.7-4.2-7.5 0-13.6 1.5-18.2 4.6-4.6 3-6.9 6.7-6.9 11 0 2.7.8 5 2.4 6.9 1.6 1.9 3.7 3.6 6.5 5 2.7 1.4 5.5 2.5 8.4 3.3 2.8.8 7.5 1.9 14 3.4 8.1 1.8 15.5 3.7 22.1 5.8s12.2 4.7 16.8 7.7c4.6 3 8.2 6.8 10.8 11.5 2.6 4.6 3.9 10.3 3.9 17-.2 7.9-2.5 15.1-6.9 21.5z"/></svg>