<svg data-name="Layer 1" xmlns="http://www.w3.org/2000/svg" viewBox="0 0 267.92 61.68"><text transform="translate(67.93 30.88)" fill="#17bed2" font-size="36" font-family="Arial-BoldMT,Arial" font-weight="700">FRONTEND</text><text transform="translate(68.93 53.88)" font-size="24" font-family="ArialMT,Arial" fill="#17bed2">ENGINEER</text><path d="M22.32 12.05h-8.53L0 30.19l13.79 18.13h8.54L8.54 30.19l13.78-18.14zm16.35 0h8.54L61 30.19 47.21 48.32h-8.53l13.78-18.13-13.78-18.14zM34.83 5.7l3 .69a.87.87 0 01.65 1l-11.17 48a.88.88 0 01-1 .65l-3-.69a.87.87 0 01-.65-1l11.17-48a.87.87 0 011-.65z" fill="#17bed2"/></svg>