<?xml version="1.0" encoding="utf-8"?>
<!-- Generator: Adobe Illustrator 21.1.0, SVG Export Plug-In . SVG Version: 6.00 Build 0)  -->
<svg version="1.1" id="Capa_1" xmlns="http://www.w3.org/2000/svg" xmlns:xlink="http://www.w3.org/1999/xlink" x="0px" y="0px"
	 viewBox="0 0 512 512" style="enable-background:new 0 0 512 512;" xml:space="preserve">
<style type="text/css">
	.st0{fill:#FFFFFF;}
</style>
<g>
	<path class="st0" d="M256,0C114.6,0,0,114.6,0,256s114.6,256,256,256s256-114.6,256-256S397.4,0,256,0z M256,472
		c-119.3,0-216-96.7-216-216S136.7,40,256,40s216,96.7,216,216S375.3,472,256,472z"/>
	<g>
		<g>
			<path class="st0" d="M128.1,383.9h48v-192h-48V383.9z M320.1,191.9c-41.1,0.7-61.3,30.6-64,32v-32h-48v192h48v-112
				c0-4.1,10.1-37,48-32c20.3,1.3,31.3,28.2,32,32v112l47.8,0.2V251.2C382.2,232,372.6,192.6,320.1,191.9z M152.1,127.9
				c-13.2,0-24,10.7-24,24s10.8,24,24,24s24-10.7,24-24S165.3,127.9,152.1,127.9z"/>
		</g>
	</g>
</g>
</svg>
