<?xml version="1.0" encoding="UTF-8" standalone="no"?>
<svg
   xmlns:dc="http://purl.org/dc/elements/1.1/"
   xmlns:cc="http://creativecommons.org/ns#"
   xmlns:rdf="http://www.w3.org/1999/02/22-rdf-syntax-ns#"
   xmlns:svg="http://www.w3.org/2000/svg"
   xmlns="http://www.w3.org/2000/svg"
   xmlns:sodipodi="http://sodipodi.sourceforge.net/DTD/sodipodi-0.dtd"
   xmlns:inkscape="http://www.inkscape.org/namespaces/inkscape"
   version="1.1"
   id="Layer_1"
   x="0px"
   y="0px"
   viewBox="0 0 143 143"
   xml:space="preserve"
   sodipodi:docname="logo-white.svg"
   width="143"
   height="143"
   inkscape:version="1.0.2 (e86c8708, 2021-01-15)"
   inkscape:export-filename="/Users/jeisonnisperuza/Downloads/logo.png"
   inkscape:export-xdpi="96"
   inkscape:export-ydpi="96"><metadata
   id="metadata29"><rdf:RDF><cc:Work
       rdf:about=""><dc:format>image/svg+xml</dc:format><dc:type
         rdf:resource="http://purl.org/dc/dcmitype/StillImage" /><dc:title></dc:title></cc:Work></rdf:RDF></metadata><defs
   id="defs27" /><sodipodi:namedview
   pagecolor="#ffffff"
   bordercolor="#666666"
   borderopacity="1"
   objecttolerance="10"
   gridtolerance="10"
   guidetolerance="10"
   inkscape:pageopacity="0"
   inkscape:pageshadow="2"
   inkscape:window-width="1280"
   inkscape:window-height="701"
   id="namedview25"
   showgrid="false"
   inkscape:zoom="0.88265437"
   inkscape:cx="79.348758"
   inkscape:cy="89.552954"
   inkscape:window-x="0"
   inkscape:window-y="23"
   inkscape:window-maximized="1"
   inkscape:current-layer="g22" />
<style
   type="text/css"
   id="style10">
	.st0{fill:#17BED2;}
	.st1{enable-background:new    ;}
	.st2{fill:#FFFFFF;}
</style>
<g
   id="g16"
   transform="matrix(0.81579498,0,0,0.81579498,0.25332616,0.24025198)">
	
	<circle
   class="st0"
   cx="87.481728"
   cy="87.410759"
   id="circle14"
   r="86.106491"
   style="stroke-width:1.0969;fill:#ffffff" />
</g>
<g
   class="st1"
   id="g22"
   transform="translate(-47.927257,-62.363535)">
	
	<g
   id="g856"
   transform="matrix(0.81447386,0,0,0.81447386,21.472796,26.133212)"
   style="fill:#17bed2;fill-opacity:1"><path
     class="st2"
     d="m 79.1,165.6 c 3.9,-0.3 7.1,-1.2 9,-3.2 2.2,-2.3 3,-6.2 3,-15.9 v -39.4 h 15.2 v 43 c 0,10.7 -2.3,17.2 -6.9,21.4 -4.5,4.1 -11.6,6 -18.8,6 z m 19.4,-64.5 c -4.8,0 -7.9,-3.4 -7.9,-7.6 0,-4.3 3.2,-7.6 8.1,-7.6 4.9,0 7.9,3.3 8,7.6 0,4.2 -3.1,7.6 -8.1,7.6 z"
     id="path18"
     style="fill:#17bed2;fill-opacity:1" /><path
     class="st2"
     d="m 118.2,122.7 c 0,-6.1 -0.2,-11.2 -0.4,-15.6 H 131 l 0.7,6.8 h 0.3 c 2,-3.2 6.9,-7.9 15.1,-7.9 10,0 17.5,6.7 17.5,21.1 V 156 h -15.2 v -27.1 c 0,-6.3 -2.2,-10.6 -7.7,-10.6 -4.2,0 -6.7,2.9 -7.8,5.7 -0.4,1 -0.5,2.4 -0.5,3.8 V 156 h -15.2 z"
     id="path20"
     style="fill:#17bed2;fill-opacity:1" /></g>
</g>
</svg>
