<svg xmlns="http://www.w3.org/2000/svg" version="1.1" id="Layer_1" x="0" y="0" xml:space="preserve" width="790.29" height="790.29"><style type="text/css" id="style10">.st2{fill:#fff}</style><g id="g1426" transform="matrix(5.62522 0 0 5.62522 -7.736 -7.337)"><g id="g16" transform="matrix(.8158 0 0 .8158 .253 .24)"><circle cx="87.482" cy="87.411" id="circle14" r="86.106" stroke-width="1.097" fill="#17bed2"/></g><g id="g22" transform="translate(-47.927 -62.364)"><g id="g856" transform="matrix(.81447 0 0 .81447 21.473 26.133)"><path class="st2" d="M79.1 165.6c3.9-.3 7.1-1.2 9-3.2 2.2-2.3 3-6.2 3-15.9v-39.4h15.2v43c0 10.7-2.3 17.2-6.9 21.4-4.5 4.1-11.6 6-18.8 6zm19.4-64.5c-4.8 0-7.9-3.4-7.9-7.6 0-4.3 3.2-7.6 8.1-7.6 4.9 0 7.9 3.3 8 7.6 0 4.2-3.1 7.6-8.1 7.6z" id="path18"/><path class="st2" d="M118.2 122.7c0-6.1-.2-11.2-.4-15.6H131l.7 6.8h.3c2-3.2 6.9-7.9 15.1-7.9 10 0 17.5 6.7 17.5 21.1V156h-15.2v-27.1c0-6.3-2.2-10.6-7.7-10.6-4.2 0-6.7 2.9-7.8 5.7-.4 1-.5 2.4-.5 3.8V156h-15.2z" id="path20"/></g></g></g></svg>