<?xml version="1.0" encoding="utf-8"?>
<!-- Generator: Adobe Illustrator 21.1.0, SVG Export Plug-In . SVG Version: 6.00 Build 0)  -->
<svg version="1.1" id="Capa_1" xmlns="http://www.w3.org/2000/svg" xmlns:xlink="http://www.w3.org/1999/xlink" x="0px" y="0px"
	 viewBox="0 0 512 512" style="enable-background:new 0 0 512 512;" xml:space="preserve">
<style type="text/css">
	.st0{fill:#FFFFFF;}
</style>
<g>
	<g>
		<path class="st0" d="M256,0C114.6,0,0,114.6,0,256s114.6,256,256,256s256-114.6,256-256S397.4,0,256,0z M256,472
			c-119.3,0-216-96.7-216-216S136.7,40,256,40s216,96.7,216,216S375.3,472,256,472z"/>
		<path class="st0" d="M366.7,256.3c0-63-51.1-114.1-114.1-114.1c-5.9,0-11.6,0.6-17.3,1.4c-11.4-9.7-26.1-15.6-42.2-15.6
			c-35.9,0-65.1,29.1-65.1,65.1c0,14.7,4.9,28.2,13.1,39c-1.7,7.8-2.6,15.9-2.6,24.2c0,63,51.1,114.1,114.1,114.1
			c8.1,0,16-0.9,23.6-2.5c11.4,10,26.3,16,42.7,16c35.9,0,65.1-29.1,65.1-65.1c0-17.8-7.1-33.8-18.7-45.6
			C366.2,267.8,366.7,262.1,366.7,256.3z M305.9,306c-4.5,6.4-11.1,11.4-19.7,15c-8.7,3.6-18.9,5.4-30.8,5.4
			c-14.2,0-26-2.5-35.2-7.4c-6.5-3.5-11.9-8.3-16-14.2c-4.1-5.9-6.2-11.7-6.2-17.3c0-3.3,1.2-6,3.7-8.4c2.5-2.3,5.6-3.5,9.4-3.5
			c3.1,0,5.7,0.9,7.8,2.7c2.1,1.8,4,4.5,5.5,8c1.8,4.2,3.8,7.8,6,10.6c2.1,2.8,5.1,5.2,9,7c3.9,1.8,9,2.8,15.2,2.8
			c8.7,0,15.7-1.8,21.1-5.6c5.4-3.7,8.1-8.3,8.1-13.9c0-4.4-1.5-8-4.4-10.7c-2.9-2.8-6.7-4.8-11.3-6.3c-4.6-1.4-10.8-3-18.5-4.6
			c-10.4-2.2-19-4.8-26-7.8c-7-3-12.5-7.1-16.6-12.2c-4.1-5.2-6.2-11.6-6.2-19.2c0-7.3,2.2-13.8,6.5-19.5c4.3-5.7,10.6-10,18.8-13.1
			c8.2-3,17.8-4.6,28.9-4.6c8.8,0,16.5,1,23,3c6.5,2,11.8,4.7,16.1,8c4.2,3.4,7.4,6.9,9.3,10.5c2,3.7,3,7.3,3,10.8
			c0,3.2-1.2,6.1-3.7,8.7c-2.5,2.5-5.5,3.8-9.2,3.8c-3.3,0-5.9-0.8-7.6-2.3c-1.7-1.5-3.6-4-5.7-7.5c-2.6-5-5.8-8.9-9.5-11.7
			c-3.7-2.8-9.6-4.2-17.7-4.2c-7.5,0-13.6,1.5-18.2,4.6c-4.6,3-6.9,6.7-6.9,11c0,2.7,0.8,5,2.4,6.9c1.6,1.9,3.7,3.6,6.5,5
			c2.7,1.4,5.5,2.5,8.4,3.3c2.8,0.8,7.5,1.9,14,3.4c8.1,1.8,15.5,3.7,22.1,5.8s12.2,4.7,16.8,7.7c4.6,3,8.2,6.8,10.8,11.5
			c2.6,4.6,3.9,10.3,3.9,17C312.6,292.4,310.3,299.6,305.9,306z"/>
	</g>
</g>
</svg>
