<svg id="Layer_1" data-name="Layer 1" xmlns="http://www.w3.org/2000/svg" viewBox="0 0 267.92 61.68"><defs><style>.cls-1{font-size:36px;font-family:Arial-BoldMT, Arial;font-weight:700;}.cls-1,.cls-2,.cls-3{fill:#17bed2;}.cls-2{font-size:24px;font-family:ArialMT, Arial;}</style></defs><title>FrontendEngineer</title><text class="cls-1" transform="translate(67.93 30.88)">FRONTEND</text><text class="cls-2" transform="translate(68.93 53.88)">ENGINEER</text><path class="cls-3" d="M30.32,20.52H21.79L8,38.66,21.79,56.79h8.54L16.54,38.66,30.32,20.52Zm16.35,0h8.54L69,38.66,55.21,56.79H46.68L60.46,38.66,46.68,20.52Zm-3.84-6.35,3,.69a.87.87,0,0,1,.65,1l-11.17,48a.88.88,0,0,1-1,.65l-3-.69a.87.87,0,0,1-.65-1l11.17-48a.87.87,0,0,1,1-.65Z" transform="translate(-8 -8.47)"/></svg>