<?xml version="1.0" encoding="utf-8"?>
<!-- Generator: Adobe Illustrator 21.1.0, SVG Export Plug-In . SVG Version: 6.00 Build 0)  -->
<svg version="1.1" id="Layer_1" xmlns="http://www.w3.org/2000/svg" xmlns:xlink="http://www.w3.org/1999/xlink" x="0px" y="0px"
	 viewBox="0 0 250 250" style="enable-background:new 0 0 250 250;" xml:space="preserve">
<style type="text/css">
	.st0{fill:#FFFFFF;}
	.st1{enable-background:new    ;}
	.st2{fill:#17BED2;}
</style>
<g>
	<path class="st0" d="M125,30L125,30L125,30L31.9,63.2l14.2,123.1L125,230l0,0l0,0l78.9-43.7l14.2-123.1L125,30z M183.1,182.6h-21.7
		l0,0l-11.7-29.2H125l0,0l0,0h-24.7l-11.7,29.2l0,0H66.9l0,0L125,52.1l0,0l0,0l0,0l0,0L183.1,182.6L183.1,182.6z"/>
	<circle class="st0" cx="124.5" cy="129.5" r="78.5"/>
</g>
<g class="st1">
	<path class="st2" d="M79.1,165.6c3.9-0.3,7.1-1.2,9-3.2c2.2-2.3,3-6.2,3-15.9v-39.4h15.2v43c0,10.7-2.3,17.2-6.9,21.4
		c-4.5,4.1-11.6,6-18.8,6L79.1,165.6z M98.5,101.1c-4.8,0-7.9-3.4-7.9-7.6c0-4.3,3.2-7.6,8.1-7.6s7.9,3.3,8,7.6
		C106.7,97.7,103.6,101.1,98.5,101.1L98.5,101.1z"/>
	<path class="st2" d="M118.2,122.7c0-6.1-0.2-11.2-0.4-15.6H131l0.7,6.8h0.3c2-3.2,6.9-7.9,15.1-7.9c10,0,17.5,6.7,17.5,21.1V156
		h-15.2v-27.1c0-6.3-2.2-10.6-7.7-10.6c-4.2,0-6.7,2.9-7.8,5.7c-0.4,1-0.5,2.4-0.5,3.8V156h-15.2L118.2,122.7L118.2,122.7z"/>
</g>
</svg>
